<svg xmlns="http://www.w3.org/2000/svg" xmlns:xlink="http://www.w3.org/1999/xlink" width="14.095" height="29.084" viewBox="0 0 14.095 29.084">
  <defs>
    <clipPath id="clip-path">
      <rect id="Rectangle_1657" data-name="Rectangle 1657" width="29.084" height="14.095" fill="#fe6866"/>
    </clipPath>
  </defs>
  <g id="Group_704" data-name="Group 704" transform="translate(14.095) rotate(90)">
    <g id="Group_655" data-name="Group 655" clip-path="url(#clip-path)">
      <path id="Path_1162" data-name="Path 1162" d="M29.084,7.331a7.9,7.9,0,0,1-.631.818c-1.836,1.843-3.687,3.673-5.527,5.512a1.183,1.183,0,0,1-1.2.391,1.131,1.131,0,0,1-.505-1.914c.707-.724,1.435-1.428,2.151-2.144.587-.587,1.169-1.179,1.8-1.811H1.211A1.134,1.134,0,0,1,.14,6.517,1.12,1.12,0,0,1,1.212,5.91q9.623.005,19.246,0H25.18c-.106-.111-.172-.182-.241-.251Q23.1,3.829,21.258,2a1.144,1.144,0,1,1,1.627-1.6q1.636,1.635,3.28,3.263c.765.761,1.536,1.515,2.288,2.289a8.7,8.7,0,0,1,.631.817Z" transform="translate(0 0.001)" fill="#fe6866"/>
    </g>
  </g>
</svg>
