<svg id="Group_707" data-name="Group 707" xmlns="http://www.w3.org/2000/svg" xmlns:xlink="http://www.w3.org/1999/xlink" width="94.322" height="28.006" viewBox="0 0 94.322 28.006">
  <defs>
    <clipPath id="clip-path">
      <rect id="Rectangle_1691" data-name="Rectangle 1691" width="94.322" height="28.006" fill="#fff"/>
    </clipPath>
  </defs>
  <g id="Group_691" data-name="Group 691" clip-path="url(#clip-path)">
    <path id="Path_1167" data-name="Path 1167" d="M12.053,28.006c-.286-.03-.571-.065-.857-.089A14.946,14.946,0,0,1,5.4,26.308,11.146,11.146,0,0,1,.921,22.339a5.087,5.087,0,0,1-.909-3.056,6.316,6.316,0,0,1,3.451-5.49A.254.254,0,0,1,3.7,13.8a.274.274,0,0,1,.018.241A10.753,10.753,0,0,0,2.9,16.627a7.014,7.014,0,0,0,.035,2.593,4.269,4.269,0,0,0,1.437,2.155,16.573,16.573,0,0,0,3.544,2.364A26.423,26.423,0,0,0,12.7,25.812a12.181,12.181,0,0,0,4.446.588,8.794,8.794,0,0,0,8.08-6.036,33.316,33.316,0,0,0,1.088-4.385,19.851,19.851,0,0,0,.463-4.777A9.521,9.521,0,0,0,26,7.51a6.747,6.747,0,0,0-3.12-3.168A14.5,14.5,0,0,0,18.648,3a38.97,38.97,0,0,0-6.574-.54c-.705-.008-1.411-.007-2.117.009-.214,0-.335-.04-.311-.314.24-.112.5-.246.774-.359A23.472,23.472,0,0,1,16.94.122a17.122,17.122,0,0,1,6.068.342,10.305,10.305,0,0,1,4.971,2.744A9.332,9.332,0,0,1,30.5,8.272a16.866,16.866,0,0,1-.539,7.267,22,22,0,0,1-2.339,5.73,12.654,12.654,0,0,1-5.41,4.9,17.381,17.381,0,0,1-5.385,1.554c-.837.115-1.683.166-2.525.248a1.512,1.512,0,0,0-.179.039Z" transform="translate(-0.001 0)" fill="#fff"/>
    <path id="Path_1168" data-name="Path 1168" d="M703.188,41.117a3.3,3.3,0,0,1-3.262,2.164,2.611,2.611,0,0,1-.75,2.214,2.764,2.764,0,0,1-2.06,1.03,4.475,4.475,0,0,1-3.175-1.192c-.577-.488-1.088-1.054-1.637-1.593-.049.114-.113.267-.182.418a4.427,4.427,0,0,1-1.321,1.769,2.9,2.9,0,0,1-3.7-.124,7.936,7.936,0,0,1-1.835-2.387c-.037-.068-.076-.136-.119-.213-.21.35-.4.7-.62,1.025a5.116,5.116,0,0,1-2.592,2.112,2.65,2.65,0,0,1-3.233-.9,6.273,6.273,0,0,1-1.39-2.769c-.209.22-.374.426-.571.594a3.037,3.037,0,0,1-1.677.722.779.779,0,0,0-.625.541,3.074,3.074,0,0,1-.664.985,4.409,4.409,0,0,1-2.537,1.159,3.735,3.735,0,0,1-3.54-1.654c-.07-.084-.137-.171-.207-.255a.109.109,0,0,0-.027-.021c-.292.363-.582.725-.874,1.086a2.616,2.616,0,0,1-2.751.864,4.711,4.711,0,0,1-2.921-1.975c-.329-.433-.6-.912-.884-1.357-.253.36-.5.765-.8,1.131a5.772,5.772,0,0,1-3.266,2.121A4.877,4.877,0,0,1,651.4,45.3a7.939,7.939,0,0,1-1.839-2.557c-.019-.041-.044-.079-.024-.057-.208.175-.418.347-.624.524a2.994,2.994,0,0,1-1.617.749.9.9,0,0,0-.778.615,2.918,2.918,0,0,1-.819,1.1,4.508,4.508,0,0,1-2.342.991,3.624,3.624,0,0,1-3.407-1.482,3.319,3.319,0,0,1-.964-1.811,5.941,5.941,0,0,1,.489-3.044,4.814,4.814,0,0,1,1.661-2.172,2.832,2.832,0,0,1,3.055-.3,1.618,1.618,0,0,1,.714.723.386.386,0,0,0,.215.176,3.167,3.167,0,0,1,2.393,2.794c.006.039.011.078.02.116s.017.06.031.11a1.816,1.816,0,0,0,1.248-.432.865.865,0,0,0,.416-.775,3.569,3.569,0,0,1,.375-1.68,3.085,3.085,0,0,1,2.423-1.8,6.235,6.235,0,0,1,4.012.752,2.426,2.426,0,0,1,1.079,3.117c-.152.378-.33.449-.661.21s-.61-.514-.922-.763a4.732,4.732,0,0,0-.669-.473,1.058,1.058,0,0,0-1.606.506,4.347,4.347,0,0,0-.234,3.222,2.358,2.358,0,0,0,3.847.763,6.726,6.726,0,0,0,1.39-2.317,23.188,23.188,0,0,0,1.211-4.782c.12-.756.264-1.508.4-2.261.007-.037.01-.074.021-.156-.343,0-.671.018-1,0-.382-.027-.762-.082-1.14-.143a1.491,1.491,0,0,1-.416-.154.331.331,0,0,1-.218-.4.411.411,0,0,1,.395-.336c.8-.055,1.593-.13,2.39-.19a.309.309,0,0,0,.32-.281c.348-1.361.7-2.721,1.077-4.075a.945.945,0,0,1,1.236-.691,16.206,16.206,0,0,1,1.868.683,2.758,2.758,0,0,1,.816.615,1.081,1.081,0,0,1,.259,1.089c-.163.611-.306,1.227-.455,1.842a1.423,1.423,0,0,0-.017.169c.421-.057.828-.125,1.237-.166a13.88,13.88,0,0,1,2.379-.19,5.58,5.58,0,0,1,3.084,1.257.848.848,0,0,1,.166.2c.185.278.109.506-.218.537-.842.08-1.685.154-2.53.185-1.465.054-2.932.077-4.4.1a.234.234,0,0,0-.264.218c-.624,2.668-1.26,5.333-1.869,8a4.146,4.146,0,0,0-.077,1.257,1.167,1.167,0,0,0,1.438.975,2.57,2.57,0,0,0,1.307-.91,7.1,7.1,0,0,0,1.215-2.259,18.771,18.771,0,0,1,1.374-2.788,3.694,3.694,0,0,1,2.214-1.782,2.621,2.621,0,0,1,2.027.19,1.673,1.673,0,0,1,.713.724.375.375,0,0,0,.216.173,3.186,3.186,0,0,1,2.391,2.8c.031.214.11.258.3.232a2.18,2.18,0,0,0,1.245-.652.375.375,0,0,0,.049-.28,57.824,57.824,0,0,1-.582-9.624,22.917,22.917,0,0,1,.454-4.547,5,5,0,0,1,.61-1.564,2.884,2.884,0,0,1,2.381-1.338,5.711,5.711,0,0,1,2.342.263,2.85,2.85,0,0,1,1.961,2.538,8.153,8.153,0,0,1-.3,2.784,30.338,30.338,0,0,1-2.068,6.383,23.347,23.347,0,0,1-2.418,4.175,2.526,2.526,0,0,0-.421,1.341,3.9,3.9,0,0,0,.351,2.239,2.113,2.113,0,0,0,.8.836,1.1,1.1,0,0,0,1.237-.081,4.151,4.151,0,0,0,1.159-1.185,11.3,11.3,0,0,0,1.615-3.314c.072-.245.076-.509.128-.76.08-.382.256-.507.617-.381a19.085,19.085,0,0,1,1.783.7,2.045,2.045,0,0,1,1.137,1.7c.132.88.291,1.758.467,2.631.128.638.412.76.961.412A5.921,5.921,0,0,0,691,42.145a1.357,1.357,0,0,0,.174-1.047q-.336-1.975-.545-3.971a33.788,33.788,0,0,1-.094-5.351,19.52,19.52,0,0,1,.932-5.483,5.918,5.918,0,0,1,.876-1.727,2.286,2.286,0,0,1,2.09-.979,7.945,7.945,0,0,1,3.573,1.106,2.887,2.887,0,0,1,1.371,2.357,13.167,13.167,0,0,1-.532,4.5,33.116,33.116,0,0,1-3.329,8.4c-.277.481-.589.941-.878,1.415a.544.544,0,0,0-.1.276,6.978,6.978,0,0,0,.415,2.367,1.894,1.894,0,0,0,.457.661c.246.228.472.172.678-.1a3.931,3.931,0,0,0,.651-1.641c.011-.053.018-.108.03-.161a1.224,1.224,0,0,0-.184-1.178,1.7,1.7,0,0,1-.3-.823,1.146,1.146,0,0,1,1.166-1.36,3.078,3.078,0,0,1,1.945.585,2.4,2.4,0,0,1,.966,1.78c.022.279.126.406.4.419.156.008.312.046.467.045a1.363,1.363,0,0,0,1.252-.689.75.75,0,0,1,.71-.433m-8.944-2.85.086.023c.3-.683.628-1.358.909-2.051a36.661,36.661,0,0,0,1.41-4.781,13.1,13.1,0,0,0,.507-3.917,5.877,5.877,0,0,0-.249-1.353.975.975,0,0,0-.892-.725.952.952,0,0,0-.914.583,4.625,4.625,0,0,0-.529,1.519,21.1,21.1,0,0,0-.357,3.805c-.046,2.113-.012,4.228-.008,6.342,0,.185.024.369.037.554m-14.461-.84.083.011c.292-.688.6-1.371.873-2.065a26.282,26.282,0,0,0,1.028-3.792,16.035,16.035,0,0,0,.521-4.13,3.979,3.979,0,0,0-.29-1.558.872.872,0,0,0-.767-.572.733.733,0,0,0-.73.494,7.473,7.473,0,0,0-.464,1.293,22.286,22.286,0,0,0-.414,4.549c-.036,1.477.053,2.958.094,4.437.012.445.044.889.067,1.334m-9.217,2.589c-.028.025-.043.033-.05.046-.058.1-.118.2-.172.306a7.662,7.662,0,0,0-.918,3.074,2.195,2.195,0,0,0,.354,1.5A.868.868,0,0,0,671,45.3a4.836,4.836,0,0,0,2.11-1.811,6.711,6.711,0,0,1-2.543-3.47m-27.931-.01c-.045.063-.075.1-.1.135a7.972,7.972,0,0,0-1.045,3.254A2.144,2.144,0,0,0,642,45.121a.8.8,0,0,0,.871.241,3.354,3.354,0,0,0,1.219-.683,5.486,5.486,0,0,0,1.085-1.194,6.733,6.733,0,0,1-2.543-3.477m56.483,1.909.067-.066A3.815,3.815,0,0,0,698.2,40.6c-.074-.056-.207-.035-.313-.049.026.1.018.244.083.307.372.362.762.706,1.145,1.056" transform="translate(-608.865 -22.468)" fill="#fff"/>
    <path id="Path_1169" data-name="Path 1169" d="M301.778,125.812c.094-.484.2-1.043.311-1.6q.911-4.655,1.822-9.309c.111-.567.228-1.133.333-1.7a1.4,1.4,0,0,1,.406-.749,4.154,4.154,0,0,1,1.566-1.007,1.468,1.468,0,0,1,.294-.077c.486-.065.645.1.552.576q-.65,3.333-1.306,6.665-.576,2.942-1.153,5.885a.92.92,0,0,1-.139.369,3.562,3.562,0,0,1-2.195,1.414c-.331.066-.5-.086-.492-.463" transform="translate(-287.569 -106.111)" fill="#fff"/>
    <path id="Path_1170" data-name="Path 1170" d="M1606.166,216.953a1.586,1.586,0,1,1,3.168.062,1.585,1.585,0,1,1-3.168-.062" transform="translate(-1530.539 -205.192)" fill="#fff"/>
    <path id="Path_1171" data-name="Path 1171" d="M1891.95,385.454c-.384-.35-.773-.694-1.145-1.056-.065-.064-.057-.2-.083-.307.106.014.238-.007.313.049a3.814,3.814,0,0,1,.983,1.248l-.067.066" transform="translate(-1801.697 -366.006)" fill="#fff"/>
  </g>
</svg>
