<svg id="Group_692" data-name="Group 692" xmlns="http://www.w3.org/2000/svg" xmlns:xlink="http://www.w3.org/1999/xlink" width="67.145" height="19.936" viewBox="0 0 67.145 19.936">
  <defs>
    <clipPath id="clip-path">
      <rect id="Rectangle_1691" data-name="Rectangle 1691" width="67.145" height="19.936" fill="#3878c4"/>
    </clipPath>
  </defs>
  <g id="Group_691" data-name="Group 691" clip-path="url(#clip-path)">
    <path id="Path_1167" data-name="Path 1167" d="M8.58,19.937c-.2-.021-.406-.046-.61-.063a10.64,10.64,0,0,1-4.124-1.146A7.935,7.935,0,0,1,.656,15.9a3.621,3.621,0,0,1-.647-2.175A4.5,4.5,0,0,1,2.465,9.819a.181.181,0,0,1,.167.006A.2.2,0,0,1,2.644,10a7.654,7.654,0,0,0-.582,1.839,4.993,4.993,0,0,0,.025,1.846A3.039,3.039,0,0,0,3.11,15.216,11.8,11.8,0,0,0,5.632,16.9a18.81,18.81,0,0,0,3.412,1.476,8.671,8.671,0,0,0,3.165.419,6.26,6.26,0,0,0,5.752-4.3,23.717,23.717,0,0,0,.775-3.122,14.131,14.131,0,0,0,.33-3.4,6.778,6.778,0,0,0-.558-2.628,4.8,4.8,0,0,0-2.221-2.255,10.321,10.321,0,0,0-3.011-.957A27.741,27.741,0,0,0,8.6,1.75c-.5-.005-1,0-1.507.007-.153,0-.238-.028-.221-.224.171-.08.358-.175.551-.256A16.709,16.709,0,0,1,12.06.087,12.189,12.189,0,0,1,16.379.33a7.336,7.336,0,0,1,3.539,1.953,6.643,6.643,0,0,1,1.795,3.605,12.007,12.007,0,0,1-.384,5.173,15.665,15.665,0,0,1-1.665,4.079,9.008,9.008,0,0,1-3.851,3.485,12.373,12.373,0,0,1-3.834,1.106c-.6.082-1.2.118-1.8.177a1.076,1.076,0,0,0-.128.028Z" transform="translate(-0.001 0)" fill="#3878c4"/>
    <path id="Path_1168" data-name="Path 1168" d="M684.679,36.064a2.348,2.348,0,0,1-2.322,1.54,1.859,1.859,0,0,1-.534,1.576,1.968,1.968,0,0,1-1.466.733,3.185,3.185,0,0,1-2.26-.849c-.411-.347-.774-.75-1.165-1.134-.035.081-.081.19-.129.3a3.152,3.152,0,0,1-.94,1.259,2.062,2.062,0,0,1-2.635-.088,5.65,5.65,0,0,1-1.307-1.7c-.027-.049-.054-.1-.085-.151-.15.249-.283.5-.441.73a3.642,3.642,0,0,1-1.845,1.5,1.887,1.887,0,0,1-2.3-.641,4.466,4.466,0,0,1-.989-1.971c-.149.157-.266.3-.407.423a2.162,2.162,0,0,1-1.194.514.554.554,0,0,0-.445.385,2.188,2.188,0,0,1-.473.7,3.139,3.139,0,0,1-1.806.825,2.659,2.659,0,0,1-2.52-1.178c-.05-.06-.1-.121-.147-.182a.078.078,0,0,0-.02-.015c-.208.258-.414.516-.622.773a1.862,1.862,0,0,1-1.958.615,3.354,3.354,0,0,1-2.079-1.406c-.234-.309-.425-.649-.629-.966-.18.256-.359.545-.571.805a4.109,4.109,0,0,1-2.325,1.51,3.472,3.472,0,0,1-3.251-.93,5.652,5.652,0,0,1-1.309-1.82c-.013-.029-.031-.056-.017-.04-.148.124-.3.247-.444.373a2.131,2.131,0,0,1-1.151.533.637.637,0,0,0-.554.438,2.078,2.078,0,0,1-.583.783,3.209,3.209,0,0,1-1.667.706,2.58,2.58,0,0,1-2.425-1.055,2.363,2.363,0,0,1-.686-1.289,4.229,4.229,0,0,1,.348-2.167,3.427,3.427,0,0,1,1.182-1.546,2.016,2.016,0,0,1,2.175-.214,1.151,1.151,0,0,1,.508.514.275.275,0,0,0,.153.125,2.254,2.254,0,0,1,1.7,1.989c0,.027.008.055.014.082s.012.043.022.078a1.293,1.293,0,0,0,.888-.307.616.616,0,0,0,.3-.552,2.54,2.54,0,0,1,.267-1.2,2.2,2.2,0,0,1,1.725-1.279,4.439,4.439,0,0,1,2.856.535,1.727,1.727,0,0,1,.768,2.219c-.108.269-.235.32-.471.15s-.434-.366-.657-.543a3.369,3.369,0,0,0-.476-.336.753.753,0,0,0-1.143.361,3.1,3.1,0,0,0-.166,2.293,1.678,1.678,0,0,0,2.739.543,4.788,4.788,0,0,0,.989-1.649,16.514,16.514,0,0,0,.862-3.4c.085-.538.188-1.073.283-1.61,0-.026.007-.053.015-.111-.244,0-.478.013-.709,0-.272-.019-.542-.058-.811-.1a1.061,1.061,0,0,1-.3-.109.236.236,0,0,1-.155-.282.292.292,0,0,1,.281-.239c.568-.039,1.134-.093,1.7-.135a.22.22,0,0,0,.228-.2c.248-.969.5-1.937.767-2.9a.673.673,0,0,1,.88-.492,11.542,11.542,0,0,1,1.33.486,1.965,1.965,0,0,1,.581.437.77.77,0,0,1,.184.775c-.116.435-.218.874-.324,1.311a.993.993,0,0,0-.012.12c.3-.041.589-.089.88-.118a9.881,9.881,0,0,1,1.693-.135,3.972,3.972,0,0,1,2.2.895.6.6,0,0,1,.118.14c.132.2.077.36-.155.382-.6.057-1.2.11-1.8.132-1.043.038-2.087.055-3.131.074a.167.167,0,0,0-.188.155c-.444,1.9-.9,3.8-1.331,5.7a2.953,2.953,0,0,0-.055.895.831.831,0,0,0,1.024.694,1.83,1.83,0,0,0,.93-.648,5.059,5.059,0,0,0,.865-1.608,13.351,13.351,0,0,1,.978-1.985,2.63,2.63,0,0,1,1.576-1.268,1.866,1.866,0,0,1,1.443.135,1.191,1.191,0,0,1,.508.516.267.267,0,0,0,.153.123,2.268,2.268,0,0,1,1.7,1.99c.022.152.078.184.215.165a1.552,1.552,0,0,0,.886-.464.267.267,0,0,0,.035-.2,41.158,41.158,0,0,1-.414-6.851,16.308,16.308,0,0,1,.323-3.237,3.559,3.559,0,0,1,.434-1.113,2.053,2.053,0,0,1,1.7-.952,4.066,4.066,0,0,1,1.667.188,2.029,2.029,0,0,1,1.4,1.807,5.8,5.8,0,0,1-.21,1.982,21.593,21.593,0,0,1-1.472,4.544,16.619,16.619,0,0,1-1.721,2.972,1.8,1.8,0,0,0-.3.954,2.774,2.774,0,0,0,.25,1.594,1.5,1.5,0,0,0,.572.6.786.786,0,0,0,.88-.058,2.954,2.954,0,0,0,.825-.844,8.042,8.042,0,0,0,1.15-2.359c.051-.174.054-.362.091-.541.057-.272.182-.361.439-.271a13.58,13.58,0,0,1,1.269.5,1.455,1.455,0,0,1,.809,1.207c.094.627.207,1.251.333,1.873.091.454.293.541.684.293A4.214,4.214,0,0,0,676,36.8a.966.966,0,0,0,.124-.745q-.239-1.406-.388-2.827a24.055,24.055,0,0,1-.067-3.809,13.9,13.9,0,0,1,.663-3.9,4.214,4.214,0,0,1,.624-1.229,1.628,1.628,0,0,1,1.488-.7,5.655,5.655,0,0,1,2.543.787,2.055,2.055,0,0,1,.976,1.678,9.372,9.372,0,0,1-.379,3.2,23.573,23.573,0,0,1-2.37,5.981c-.2.342-.419.67-.625,1.007a.387.387,0,0,0-.07.2,4.968,4.968,0,0,0,.3,1.685,1.348,1.348,0,0,0,.326.471c.175.162.336.123.482-.071a2.8,2.8,0,0,0,.464-1.168c.008-.038.012-.077.021-.115a.871.871,0,0,0-.131-.839,1.213,1.213,0,0,1-.214-.586.815.815,0,0,1,.83-.968,2.191,2.191,0,0,1,1.384.417,1.705,1.705,0,0,1,.688,1.267c.015.2.09.289.283.3.111.005.222.033.333.032a.97.97,0,0,0,.891-.491.534.534,0,0,1,.505-.308m-6.367-2.029.061.016c.217-.486.447-.967.647-1.46a26.1,26.1,0,0,0,1-3.4,9.329,9.329,0,0,0,.361-2.788,4.187,4.187,0,0,0-.177-.963.694.694,0,0,0-.635-.516.678.678,0,0,0-.651.415,3.293,3.293,0,0,0-.376,1.081,15.021,15.021,0,0,0-.254,2.709c-.033,1.5-.008,3.01-.006,4.515,0,.131.017.263.026.394m-10.294-.6.059.008c.208-.49.426-.976.622-1.47a18.712,18.712,0,0,0,.732-2.7,11.417,11.417,0,0,0,.371-2.94,2.833,2.833,0,0,0-.207-1.109.621.621,0,0,0-.546-.407.521.521,0,0,0-.52.352,5.316,5.316,0,0,0-.33.921,15.862,15.862,0,0,0-.295,3.238c-.026,1.052.038,2.106.067,3.158.009.317.031.633.048.949m-6.561,1.843c-.02.018-.031.024-.036.033-.042.072-.084.144-.122.218a5.455,5.455,0,0,0-.653,2.188,1.563,1.563,0,0,0,.252,1.065.618.618,0,0,0,.868.256,3.443,3.443,0,0,0,1.5-1.289,4.778,4.778,0,0,1-1.811-2.47m-19.883-.007c-.032.045-.053.069-.069.1a5.676,5.676,0,0,0-.744,2.317,1.526,1.526,0,0,0,.363,1.228.569.569,0,0,0,.62.171,2.389,2.389,0,0,0,.868-.486,3.906,3.906,0,0,0,.772-.85,4.793,4.793,0,0,1-1.81-2.475m40.209,1.359.048-.047a2.716,2.716,0,0,0-.7-.888c-.053-.04-.147-.025-.223-.035.018.074.013.173.059.219.265.258.542.5.815.752" transform="translate(-617.534 -22.788)" fill="#3878c4"/>
    <path id="Path_1169" data-name="Path 1169" d="M301.778,121.646c.067-.345.144-.743.221-1.141l1.3-6.627c.079-.4.162-.806.237-1.21a1,1,0,0,1,.289-.533,2.957,2.957,0,0,1,1.115-.717,1.044,1.044,0,0,1,.209-.055c.346-.046.459.07.393.41q-.463,2.373-.93,4.745-.41,2.095-.821,4.189a.655.655,0,0,1-.1.263,2.535,2.535,0,0,1-1.562,1.006c-.236.047-.356-.061-.351-.33" transform="translate(-291.663 -107.622)" fill="#3878c4"/>
    <path id="Path_1170" data-name="Path 1170" d="M1606.166,216.485a1.129,1.129,0,1,1,2.255.044,1.128,1.128,0,1,1-2.255-.044" transform="translate(-1552.329 -208.113)" fill="#3878c4"/>
    <path id="Path_1171" data-name="Path 1171" d="M1891.6,385.061c-.273-.249-.55-.494-.815-.752-.047-.045-.041-.145-.059-.219.075.01.169,0,.222.035a2.715,2.715,0,0,1,.7.888l-.048.047" transform="translate(-1827.348 -371.217)" fill="#3878c4"/>
  </g>
</svg>
