<svg id="Group_702" data-name="Group 702" xmlns="http://www.w3.org/2000/svg" xmlns:xlink="http://www.w3.org/1999/xlink" width="172.266" height="172.758" viewBox="0 0 172.266 172.758">
  <defs>
    <clipPath id="clip-path">
      <rect id="Rectangle_1629" data-name="Rectangle 1629" width="172.266" height="172.758" fill="none"/>
    </clipPath>
  </defs>
  <g id="Group_641" data-name="Group 641" clip-path="url(#clip-path)">
    <path id="Path_1111" data-name="Path 1111" d="M63.834,100.806A6.536,6.536,0,0,0,72,96.459l12.6-41.3,9.788,32.689a6.736,6.736,0,1,0,4.753,4.505c-.007-.025-.007-.049-.014-.074L85.8,47.8c-.005-.017-.013-.03-.018-.046a6.535,6.535,0,0,0-12.551-.167L59.487,92.644a6.538,6.538,0,0,0,4.346,8.162" transform="translate(17.862 12.96)" fill="#132940"/>
    <path id="Path_1112" data-name="Path 1112" d="M44.286,100.806a6.536,6.536,0,0,0,8.162-4.346L66.19,51.4a6.539,6.539,0,1,0-12.508-3.815L39.939,92.644a6.538,6.538,0,0,0,4.346,8.162" transform="translate(11.964 12.96)" fill="#132940"/>
    <path id="Path_1113" data-name="Path 1113" d="M10.052,53.58a5.57,5.57,0,0,0-3.776-2.191A4.86,4.86,0,0,0,2.3,52.21,6.029,6.029,0,0,0,.277,56.192,19.687,19.687,0,0,0,0,59.077l10.212,1.763a21.886,21.886,0,0,0,.543-2.413,6.476,6.476,0,0,0-.7-4.846m-.329,4.4a8.493,8.493,0,0,1-.311,1.342L1.218,57.908a7.717,7.717,0,0,1,.133-1.593c.487-2.835,2.282-3.952,4.728-3.516,2.8.484,4.137,2.316,3.644,5.18" transform="translate(0 15.474)" fill="#132940"/>
    <path id="Path_1114" data-name="Path 1114" d="M11.055,52.325l.363-1.311L7.534,49.94a3.758,3.758,0,0,1-.6-.232,1.928,1.928,0,0,1-1.211-2.247,2.058,2.058,0,0,1,.171-.437l-1.25-.346a1.479,1.479,0,0,0-.148.363A2.269,2.269,0,0,0,5.534,49.5l-.017.059-1.441-.35-.32,1.159c.689.142,1.428.333,2.287.57Z" transform="translate(1.133 14.084)" fill="#132940"/>
    <path id="Path_1115" data-name="Path 1115" d="M9.1,47.211a.922.922,0,0,0,.647,1.195.931.931,0,1,0,.574-1.768.912.912,0,0,0-1.221.573" transform="translate(2.73 14.054)" fill="#132940"/>
    <path id="Path_1116" data-name="Path 1116" d="M13.31,46.24l.6-1.2L9.825,43A2.045,2.045,0,0,1,8.8,40.468c.466-.935,1.487-1.023,2.564-.487L15.42,42l.6-1.2-4.184-2.081a2.279,2.279,0,0,1-.566-.4,1.78,1.78,0,0,1-.394-2.012c.493-.993,1.514-1.079,2.814-.432l3.835,1.908.6-1.2-3.988-1.984c-2.351-1.169-3.6-.134-4.044.763a2.586,2.586,0,0,0-.269,1.734,3.137,3.137,0,0,0,.505,1.195l-.014.027A2.232,2.232,0,0,0,8,39.548a2.6,2.6,0,0,0,.186,2.747l-.02.043-1.122-.488-.535,1.078c.582.237,1.161.508,1.86.857Z" transform="translate(1.965 10.279)" fill="#132940"/>
    <path id="Path_1117" data-name="Path 1117" d="M14.172,35.116a3.513,3.513,0,0,0,5.245-.932,6.174,6.174,0,0,0,1.027-2.344l-.948-.359a4.948,4.948,0,0,1-.853,1.95,2.424,2.424,0,0,1-3.629.67L18,29.708a4.727,4.727,0,0,0-.5-.4c-1.151-.784-3.317-1.461-4.7.581-1.238,1.821-.508,3.943,1.377,5.226m-.625-4.582a1.957,1.957,0,0,1,2.918-.32L14.21,33.535a2.277,2.277,0,0,1-.663-3" transform="translate(3.676 8.611)" fill="#132940"/>
    <path id="Path_1118" data-name="Path 1118" d="M19.082,24.717a2.527,2.527,0,0,0-2.357.988c-1.2,1.4-1.03,3.6.9,5.213,1.747,1.488,3.837,1.42,5.023.029a2.8,2.8,0,0,0,.539-2.925L23.2,28l1.04.8.8-.94c-.422-.3-1.017-.781-1.528-1.218l-6.959-5.922-.89,1.047L19.1,24.694ZM20.7,26.05l1,.85a2.5,2.5,0,0,1,.411.432,2.066,2.066,0,0,1-.059,2.6c-.961,1.131-2.411.883-3.576-.109C17.2,28.737,16.8,27.283,17.718,26.2a2.022,2.022,0,0,1,2.5-.479,2.524,2.524,0,0,1,.48.328" transform="translate(4.727 6.252)" fill="#132940"/>
    <path id="Path_1119" data-name="Path 1119" d="M24.7,25.373a.986.986,0,1,0-1.347-.038.916.916,0,0,0,1.347.038" transform="translate(6.95 7.15)" fill="#132940"/>
    <path id="Path_1120" data-name="Path 1120" d="M30.09,12.628l.036-.029c.777,1.057,1.912,2.412,2.859,3.538l2.99,3.534,1.061-.8-6.852-8.02L28.8,11.9l1.563,5.2c.423,1.341.817,2.49,1.243,3.5l-.038.029c-.868-.713-1.85-1.421-2.978-2.195l-4.5-2.99L22.707,16.48l5.742,8.856,1.035-.781L27,20.779c-.872-1.319-1.872-2.775-2.635-3.843l.023-.02c.988.821,2.143,1.653,3.433,2.538l4.375,2.984.824-.62-1.586-5.2c-.446-1.479-.885-2.791-1.341-3.992" transform="translate(6.851 3.275)" fill="#132940"/>
    <path id="Path_1121" data-name="Path 1121" d="M34.425,11.365a1.555,1.555,0,0,1,2.354.678l.077.135c-2.549,1.424-3.47,3.092-2.572,4.682a2.155,2.155,0,0,0,3.081.752A2.819,2.819,0,0,0,38.823,15.5l.04-.022.564.775,1.088-.613a10.673,10.673,0,0,1-1-1.517l-1.39-2.459c-.746-1.32-2.011-2.416-4.022-1.28a4.687,4.687,0,0,0-1.832,1.807l.716.635a3.768,3.768,0,0,1,1.438-1.458M38,14.134a1.4,1.4,0,0,1,.146.419,1.88,1.88,0,0,1-.967,2,1.216,1.216,0,0,1-1.774-.5c-.721-1.277.63-2.346,1.95-3.056Z" transform="translate(9.737 2.989)" fill="#132940"/>
    <path id="Path_1122" data-name="Path 1122" d="M40.659,15.672l1.234-.57L40.2,11.442a3.617,3.617,0,0,1-.212-.607,1.926,1.926,0,0,1,.932-2.377,2.074,2.074,0,0,1,.445-.155l-.544-1.177a1.471,1.471,0,0,0-.375.121,2.268,2.268,0,0,0-1.2,2.381l-.057.027-.666-1.328-1.09.505c.335.62.672,1.307,1.045,2.115Z" transform="translate(11.294 2.15)" fill="#132940"/>
    <rect id="Rectangle_1626" data-name="Rectangle 1626" width="1.373" height="11.089" transform="translate(52.464 5.483) rotate(-21.52)" fill="#132940"/>
    <path id="Path_1123" data-name="Path 1123" d="M49.428,12.32a6.09,6.09,0,0,0,2.265-1.194l-.515-.87a4.99,4.99,0,0,1-1.884.993A2.422,2.422,0,0,1,46.041,9.51l5.073-1.572a5.53,5.53,0,0,0-.144-.627c-.413-1.326-1.682-3.206-4.041-2.475-2.1.652-2.853,2.765-2.178,4.945a3.509,3.509,0,0,0,4.677,2.538M47.116,5.808A1.958,1.958,0,0,1,49.6,7.377l-3.835,1.19a2.278,2.278,0,0,1,1.352-2.758" transform="translate(13.43 1.41)" fill="#132940"/>
    <path id="Path_1124" data-name="Path 1124" d="M54.965,10.946a6.078,6.078,0,0,0,2.372-.954l-.423-.918a4.976,4.976,0,0,1-1.975.794,2.42,2.42,0,0,1-3.058-2.062l5.206-1.047a5.224,5.224,0,0,0-.081-.637c-.275-1.363-1.345-3.361-3.763-2.876-2.16.433-3.123,2.459-2.674,4.7a3.513,3.513,0,0,0,4.4,3M53.329,4.234A1.956,1.956,0,0,1,55.637,6.05L51.7,6.839a2.278,2.278,0,0,1,1.627-2.6" transform="translate(15.225 0.957)" fill="#132940"/>
    <path id="Path_1125" data-name="Path 1125" d="M57.389,10.292l1.369-.125-.413-4.526a1.945,1.945,0,0,1,.036-.647A1.952,1.952,0,0,1,60.09,3.426c1.29-.117,1.834.853,1.943,2.066l.4,4.341L63.8,9.709l-.413-4.5c-.233-2.583-1.908-3.058-2.951-2.964a2.784,2.784,0,0,0-2.36,1.644l-.033,0-.191-1.237-1.212.111c.1.616.177,1.254.246,2.031Z" transform="translate(17.09 0.675)" fill="#132940"/>
    <path id="Path_1126" data-name="Path 1126" d="M68.225,7.12l3.723.264.888,3.383,1.449.1L71.448.117,69.812,0,65.5,10.246l1.4.1Zm1.6-4c.249-.625.463-1.251.665-1.863h.033c.111.62.223,1.252.407,1.955l.814,3.094L68.58,6.082Z" transform="translate(19.763)" fill="#132940"/>
    <path id="Path_1127" data-name="Path 1127" d="M75.157,6.545a3.755,3.755,0,0,1,.167-.621,1.928,1.928,0,0,1,2.1-1.438,2.039,2.039,0,0,1,.457.124l.211-1.28a1.521,1.521,0,0,0-.377-.109,2.266,2.266,0,0,0-2.334,1.291l-.062-.01.2-1.471-1.185-.2c-.07.7-.18,1.459-.327,2.337l-.85,5.129,1.342.223Z" transform="translate(22.073 0.854)" fill="#132940"/>
    <path id="Path_1128" data-name="Path 1128" d="M78.236,11.245l1.14-4.4a2.012,2.012,0,0,1,2.387-1.5c1.256.325,1.44,1.421,1.134,2.6l-1.092,4.219,1.33.345,1.132-4.371c.651-2.512-.767-3.524-1.779-3.785a2.781,2.781,0,0,0-2.777.75L79.681,5.1l.24-1.229-1.179-.307c-.113.617-.259,1.242-.453,2L76.907,10.9Z" transform="translate(23.205 1.076)" fill="#132940"/>
    <path id="Path_1129" data-name="Path 1129" d="M85.826,13.633a3.7,3.7,0,0,0,4.95-2.409A3.582,3.582,0,0,0,88.76,6.29,3.692,3.692,0,0,0,83.825,8.7a3.6,3.6,0,0,0,2,4.928m-.685-4.475c.514-1.343,1.705-2.5,3.223-1.915s1.537,2.325,1.082,3.522c-.608,1.592-1.97,2.394-3.194,1.925-1.255-.478-1.7-1.986-1.11-3.533" transform="translate(25.197 1.816)" fill="#132940"/>
    <rect id="Rectangle_1627" data-name="Rectangle 1627" width="11.09" height="1.375" transform="matrix(0.429, -0.903, 0.903, 0.429, 115.946, 17.333)" fill="#132940"/>
    <path id="Path_1130" data-name="Path 1130" d="M92.7,12.626c-1.152,1.989-.711,4.031.871,4.947a2.791,2.791,0,0,0,2.973.009l.03.017-.605,1.166,1.066.618c.219-.47.588-1.138.927-1.721l4.582-7.907-1.188-.689-2.265,3.905-.026-.014a2.529,2.529,0,0,0-1.394-2.144c-1.595-.924-3.722-.372-4.97,1.812m4.66-.747a2.021,2.021,0,0,1,.916,2.373,2.411,2.411,0,0,1-.237.531l-.656,1.136a2.433,2.433,0,0,1-.353.483,2.066,2.066,0,0,1-2.566.407c-1.284-.743-1.3-2.216-.53-3.539.838-1.446,2.195-2.1,3.425-1.392" transform="translate(27.774 2.736)" fill="#132940"/>
    <path id="Path_1131" data-name="Path 1131" d="M100.132,14.481c-.528.734-.448,1.718.374,2.905.607.9.713,1.416.331,1.95-.364.506-1.036.639-1.85.055a3.594,3.594,0,0,1-1.152-1.5l-.889.65A4.3,4.3,0,0,0,98.369,20.2c1.459,1.048,2.843.888,3.619-.189.656-.914.493-1.839-.281-3.011-.579-.879-.784-1.372-.419-1.88a1.109,1.109,0,0,1,1.631-.1,2.949,2.949,0,0,1,1,1.259l.863-.612a3.761,3.761,0,0,0-1.235-1.464,2.33,2.33,0,0,0-3.413.279" transform="translate(29.251 4.104)" fill="#132940"/>
    <path id="Path_1132" data-name="Path 1132" d="M20.279,102.112l-3.615,2.518c-1.349.937-2.38,1.695-3.463,2.6l-.031-.017a29.371,29.371,0,0,0,1.727-3.506L17.341,97.9l-.846-1.22-8.642,6.017.733,1.05,3.693-2.571c1.434-1,2.455-1.747,3.5-2.57l.038.029a33.5,33.5,0,0,0-1.759,3.624l-2.476,5.8.786,1.13,8.641-6.015Z" transform="translate(2.369 29.169)" fill="#132940"/>
    <path id="Path_1133" data-name="Path 1133" d="M19.46,111.494a5.928,5.928,0,0,0,.51-.389c1.041-.923,2.234-2.853.6-4.7-1.461-1.651-3.7-1.467-5.406.044a3.51,3.51,0,0,0-.392,5.311,6.09,6.09,0,0,0,2.019,1.575l.579-.828a4.979,4.979,0,0,1-1.679-1.311,2.425,2.425,0,0,1,.249-3.681Zm.3-4.522a1.959,1.959,0,0,1-.41,2.909l-2.659-3.008a2.277,2.277,0,0,1,3.069.1" transform="translate(4.144 31.753)" fill="#132940"/>
    <path id="Path_1134" data-name="Path 1134" d="M26.139,112.42l-3.127,3.422a2.006,2.006,0,0,1-.566.435,1.982,1.982,0,0,1-2.179-.3c-.922-.841-.592-1.85.378-2.912l2.821-3.088-1.013-.927-2.981,3.261c-1.79,1.962-1.183,3.4-.307,4.2a2.844,2.844,0,0,0,2.791.647l.023.021-.775.962.9.821c.366-.469.817-.985,1.345-1.562l3.706-4.057Z" transform="translate(5.526 32.903)" fill="#132940"/>
    <path id="Path_1135" data-name="Path 1135" d="M29.96,114.968c-1.774-1.3-3.921-.653-5.273,1.183a3.51,3.51,0,0,0,.732,5.273,6.133,6.133,0,0,0,2.305,1.116l.393-.932a4.977,4.977,0,0,1-1.916-.928,2.421,2.421,0,0,1-.532-3.651l4.279,3.151a5.039,5.039,0,0,0,.417-.489c.827-1.119,1.584-3.257-.4-4.723m-.462,3.659-3.232-2.381a2.277,2.277,0,0,1,3.023-.549,1.958,1.958,0,0,1,.21,2.93" transform="translate(7.186 34.482)" fill="#132940"/>
    <path id="Path_1136" data-name="Path 1136" d="M35.133,121.241,36.8,118.16l3.8,2.046.542-1L36.14,116.51l-5,9.272,1.2.646,2.262-4.2,3.507,1.891.534-.991Z" transform="translate(9.396 35.154)" fill="#132940"/>
    <path id="Path_1137" data-name="Path 1137" d="M42.541,123.7l.526-1.183a1.343,1.343,0,0,0-.336-.2,2.268,2.268,0,0,0-2.585.663l-.057-.026.56-1.375-1.1-.488c-.242.661-.539,1.368-.9,2.18l-2.113,4.753,1.241.552,1.638-3.683a3.878,3.878,0,0,1,.316-.56,1.929,1.929,0,0,1,2.4-.864,2.2,2.2,0,0,1,.407.233" transform="translate(11.024 36.535)" fill="#132940"/>
    <path id="Path_1138" data-name="Path 1138" d="M45.5,123.257a4.7,4.7,0,0,0-2.568-.193l-.005.959a3.791,3.791,0,0,1,2.044.122,1.561,1.561,0,0,1,1.041,2.223l-.052.148c-2.752-.987-4.617-.583-5.225,1.142a2.157,2.157,0,0,0,1.459,2.818,2.827,2.827,0,0,0,2.555-.293l.044.014-.212.935,1.178.418a10.579,10.579,0,0,1,.486-1.752l.94-2.669c.5-1.429.5-3.1-1.684-3.874m-.264,5.407a1.417,1.417,0,0,1-.22.387,1.882,1.882,0,0,1-2.145.587,1.22,1.22,0,0,1-.788-1.67c.489-1.385,2.184-1.069,3.589-.542Z" transform="translate(12.252 37.101)" fill="#132940"/>
    <path id="Path_1139" data-name="Path 1139" d="M52.234,130.268a2.01,2.01,0,0,1-.285.655,1.982,1.982,0,0,1-2.053.793c-1.215-.289-1.416-1.333-1.082-2.73l.974-4.072-1.337-.32-1.028,4.3c-.617,2.583.612,3.552,1.766,3.828a2.842,2.842,0,0,0,2.758-.789l.031.009-.211,1.218,1.185.282c.092-.587.237-1.259.419-2.019l1.278-5.349-1.337-.32Z" transform="translate(14.259 37.593)" fill="#132940"/>
    <path id="Path_1140" data-name="Path 1140" d="M58.064,126.246c-2.183-.285-3.748,1.323-4.042,3.584a3.509,3.509,0,0,0,3.191,4.259,6.107,6.107,0,0,0,2.555-.139l-.105-1.006a4.934,4.934,0,0,1-2.126.116,2.419,2.419,0,0,1-2.231-2.937l5.265.689a5.757,5.757,0,0,0,.129-.63c.18-1.377-.19-3.616-2.636-3.935m1.363,3.424-3.979-.521a2.28,2.28,0,0,1,2.38-1.942,1.957,1.957,0,0,1,1.6,2.463" transform="translate(16.286 38.081)" fill="#132940"/>
    <path id="Path_1141" data-name="Path 1141" d="M64.782,126.727a2.777,2.777,0,0,0-2.533,1.359h-.033l-.047-1.25-1.217-.03c.03.625.03,1.265.01,2.048l-.134,5.513,1.375.034.111-4.544a2.014,2.014,0,0,1,.109-.639,1.955,1.955,0,0,1,1.877-1.36c1.3.033,1.725,1.06,1.7,2.275l-.107,4.358,1.373.033.111-4.513c.062-2.592-1.545-3.256-2.592-3.282" transform="translate(18.354 38.236)" fill="#132940"/>
    <path id="Path_1142" data-name="Path 1142" d="M73.358,129.4c-.122-1.51-.81-3.036-3.112-2.851a4.7,4.7,0,0,0-2.42.868l.384.879a3.759,3.759,0,0,1,1.916-.719,1.556,1.556,0,0,1,1.851,1.605l.013.156c-2.911.219-4.448,1.346-4.3,3.167a2.155,2.155,0,0,0,2.478,1.977,2.824,2.824,0,0,0,2.213-1.307l.047,0,.186.94,1.246-.1a10.527,10.527,0,0,1-.272-1.8Zm-1.2,2.633a1.875,1.875,0,0,1-1.718,1.407,1.214,1.214,0,0,1-1.4-1.2c-.117-1.463,1.557-1.864,3.053-1.955l.105,1.307a1.42,1.42,0,0,1-.042.443" transform="translate(20.42 38.179)" fill="#132940"/>
    <path id="Path_1143" data-name="Path 1143" d="M76.963,125.694a2.271,2.271,0,0,0-1.8,1.973l-.061.009-.286-1.457-1.188.2c.161.685.3,1.438.445,2.317l.842,5.135,1.342-.22-.653-3.978a3.946,3.946,0,0,1-.042-.642,1.931,1.931,0,0,1,1.533-2.044,2.1,2.1,0,0,1,.471-.027l-.211-1.282a1.469,1.469,0,0,0-.393.018" transform="translate(22.215 37.918)" fill="#132940"/>
    <path id="Path_1144" data-name="Path 1144" d="M80.282,131.876l-.008-.03c.241-.461.456-.9.659-1.382l2.236-5.062-.189-.838-5.6,1.367.264,1.078,3.973-.971.009.03c-.238.475-.457.9-.678,1.371l-2.268,5.135.19.775,5.961-1.455-.258-1.065Z" transform="translate(23.348 37.584)" fill="#132940"/>
    <path id="Path_1145" data-name="Path 1145" d="M87.632,130.218c-.728.234-1.143-.19-1.432-1.08l-1.251-3.879,1.872-.6-.32-1-1.872.6-.666-2.066-1.169.754.557,1.725-1.116.361.323.993,1.114-.358,1.265,3.922a2.8,2.8,0,0,0,1.109,1.709,1.9,1.9,0,0,0,1.589.1,3.362,3.362,0,0,0,1.1-.553l-.376-.961a3.077,3.077,0,0,1-.73.333" transform="translate(24.812 36.87)" fill="#132940"/>
    <path id="Path_1146" data-name="Path 1146" d="M90.372,121.619a2.967,2.967,0,0,0-1.893,2.406l-.03.012-.565-1.168-1.136.484c.312.648.648,1.354,1.027,2.244l3.217,7.525,1.25-.534-1.614-3.778.029-.012a2.649,2.649,0,0,0,2.606.177c1.636-.7,2.632-2.584,1.563-5.083-.9-2.111-2.773-2.993-4.453-2.274m2.252,6.459a2.119,2.119,0,0,1-2.527-.669,2.86,2.86,0,0,1-.28-.493l-.51-1.192a2.145,2.145,0,0,1-.133-.552,2.193,2.193,0,0,1,1.241-2.382c1.334-.57,2.575.309,3.171,1.7.681,1.595.372,3.017-.962,3.588" transform="translate(26.174 36.621)" fill="#132940"/>
    <path id="Path_1147" data-name="Path 1147" d="M95.771,122.309a1.927,1.927,0,0,1,.786-2.428,2.009,2.009,0,0,1,.436-.181l-.614-1.142a1.443,1.443,0,0,0-.366.143,2.269,2.269,0,0,0-1.061,2.45l-.053.03-.745-1.286-1.061.57c.374.6.751,1.265,1.173,2.049L96.73,127.1l1.2-.644L96.018,122.9a3.811,3.811,0,0,1-.247-.594" transform="translate(28.088 35.772)" fill="#132940"/>
    <path id="Path_1148" data-name="Path 1148" d="M102.619,118.126c-.821-1.272-2.152-2.291-4.093-1.037A4.685,4.685,0,0,0,96.806,119l.752.591a3.761,3.761,0,0,1,1.349-1.54,1.556,1.556,0,0,1,2.391.536l.087.13c-2.462,1.572-3.284,3.295-2.291,4.831a2.156,2.156,0,0,0,3.122.568,2.814,2.814,0,0,0,1.33-2.2l.039-.025.609.739,1.049-.677a10.6,10.6,0,0,1-1.087-1.455Zm-.653,4.944a1.216,1.216,0,0,1-1.8-.4c-.8-1.233.487-2.381,1.765-3.168l.712,1.1a1.449,1.449,0,0,1,.173.411,1.883,1.883,0,0,1-.849,2.054" transform="translate(29.209 35.156)" fill="#132940"/>
    <path id="Path_1149" data-name="Path 1149" d="M106.3,112.006l-1.164.919.164,1.92c.055.474.1.935.186,1.445l-.036.029c-.458-.176-.884-.337-1.366-.493l-1.851-.608-1.2.949,4.3,1.317.282,4.69,1.19-.939-.2-2.012c-.06-.53-.1-1.013-.186-1.523l.023-.02c.488.191.946.367,1.45.527l1.924.647,1.226-.966-4.5-1.419Z" transform="translate(30.485 33.795)" fill="#132940"/>
    <path id="Path_1150" data-name="Path 1150" d="M105.982,110.457a.851.851,0,1,0-1.125-1.278.837.837,0,0,0-.055,1.212.815.815,0,0,0,1.179.066" transform="translate(31.551 32.871)" fill="#132940"/>
    <rect id="Rectangle_1628" data-name="Rectangle 1628" width="1.374" height="7.56" transform="matrix(0.739, -0.674, 0.674, 0.739, 137.913, 144.717)" fill="#132940"/>
    <path id="Path_1151" data-name="Path 1151" d="M111.925,110.272c-.953.448-1.47.578-1.92.143a1.1,1.1,0,0,1,.139-1.627,2.954,2.954,0,0,1,1.388-.808l-.479-.941a3.762,3.762,0,0,0-1.628,1.011,2.329,2.329,0,0,0-.217,3.418c.651.629,1.635.689,2.928.048.976-.469,1.5-.5,1.979-.044.448.435.482,1.119-.213,1.839a3.6,3.6,0,0,1-1.652.922l.514.976a4.323,4.323,0,0,0,1.848-1.17c1.246-1.293,1.29-2.685.335-3.61-.81-.781-1.748-.754-3.02-.158" transform="translate(32.755 32.296)" fill="#132940"/>
    <path id="Path_1152" data-name="Path 1152" d="M118.529,101.857c-1.22-.9-2.82-1.389-4.2.469a4.707,4.707,0,0,0-.939,2.4l.914.286a3.769,3.769,0,0,1,.719-1.915,1.562,1.562,0,0,1,2.432-.34l.122.092c-1.751,2.338-1.914,4.24-.445,5.327a2.155,2.155,0,0,0,3.122-.565,2.819,2.819,0,0,0,.471-2.528l.027-.036.831.478.745-1a10.812,10.812,0,0,1-1.53-.978Zm1.125,4.858a1.215,1.215,0,0,1-1.825.26c-1.181-.873-.381-2.4.538-3.586l1.053.781a1.449,1.449,0,0,1,.306.323,1.884,1.884,0,0,1-.072,2.222" transform="translate(34.214 30.491)" fill="#132940"/>
    <path id="Path_1153" data-name="Path 1153" d="M124.12,95.636c-1.968-1.182-3.99-.832-4.943.784a2.812,2.812,0,0,0-.112,2.926l-.016.026-4.09-2.413-.691,1.17,7.87,4.645c.578.341,1.221.758,1.651,1.047l.6-1.023-1.045-.687.023-.042a2.69,2.69,0,0,0,2.511-1.457c.857-1.453.568-3.6-1.761-4.975m.677,4.661a2.119,2.119,0,0,1-2.433.958,2.6,2.6,0,0,1-.463-.2l-1.169-.69a2.8,2.8,0,0,1-.446-.354,2.193,2.193,0,0,1-.389-2.661c.747-1.263,2.261-1.277,3.565-.506,1.493.88,2.066,2.217,1.336,3.453" transform="translate(34.478 28.645)" fill="#132940"/>
    <path id="Path_1154" data-name="Path 1154" d="M126.118,86.652c-3-1.209-5.225-.791-6.027,1.194-.772,1.915.42,3.979,3.581,5.254,3.128,1.226,5.357.674,6.1-1.168.842-2.088-.448-3.99-3.653-5.28m2.7,4.81c-.466,1.16-2.162,1.352-4.613.366-2.567-1.034-3.6-2.4-3.153-3.511.532-1.32,2.295-1.3,4.615-.366,2.407.968,3.676,2.206,3.151,3.511" transform="translate(36.166 25.941)" fill="#132940"/>
    <path id="Path_1155" data-name="Path 1155" d="M122.1,82.119l.526,2.46,1.079.035-.427-1.96.009-.03,8.526,2.456.367-1.277-9.756-2.809Z" transform="translate(36.841 24.438)" fill="#132940"/>
    <path id="Path_1156" data-name="Path 1156" d="M130.634,78.281a.911.911,0,0,0-1.155.7.987.987,0,1,0,1.155-.7" transform="translate(39.06 23.611)" fill="#132940"/>
    <path id="Path_1157" data-name="Path 1157" d="M129.346,71.267c-3.2-.44-5.259.508-5.552,2.628-.279,2.044,1.379,3.753,4.753,4.218,3.331.427,5.357-.65,5.627-2.616.306-2.23-1.407-3.759-4.828-4.229m-.6,5.485c-2.74-.376-4.077-1.444-3.913-2.635.2-1.408,1.906-1.821,4.383-1.479,2.571.353,4.1,1.242,3.912,2.635-.169,1.238-1.766,1.839-4.382,1.479" transform="translate(37.343 21.471)" fill="#132940"/>
    <path id="Path_1158" data-name="Path 1158" d="M124.42,67.658l1.114,2.256,1.054-.23-.894-1.8v-.031l8.871.288.043-1.328-10.153-.329Z" transform="translate(37.54 20.061)" fill="#132940"/>
    <path id="Path_1159" data-name="Path 1159" d="M131.77,61.87a.915.915,0,0,0-.946.961.986.986,0,0,0,1.968-.062.915.915,0,0,0-1.022-.9" transform="translate(39.473 18.667)" fill="#132940"/>
    <path id="Path_1160" data-name="Path 1160" d="M133.211,60.061l-.836-.722c-2.287-1.9-3.947-3.076-5.808-2.866a2.856,2.856,0,0,0-2.587,3.418,4.466,4.466,0,0,0,1.347,2.741l.914-.543a3.477,3.477,0,0,1-1.1-2.048,1.811,1.811,0,0,1,1.747-2.223c1.52-.156,2.956.86,5.7,3.162l1.16.953.84-.094-.725-6.441-1.132.128.509,4.533Z" transform="translate(37.399 16.715)" fill="#132940"/>
    <path id="Path_1161" data-name="Path 1161" d="M123.048,53.126l7.3,3.04.885-.193-1.006-4.607,2.7-.591-.277-1.265-2.7.591-.3-1.389-1.052.229.3,1.39-6.162,1.346Zm2.813-.806,3.312-.725.709,3.249-.031.008-3.9-1.69c-.515-.173-1-.325-1.643-.5l-.009-.046c.525-.083,1.048-.182,1.565-.294" transform="translate(37.031 14.698)" fill="#132940"/>
  </g>
</svg>
