<svg xmlns="http://www.w3.org/2000/svg" xmlns:xlink="http://www.w3.org/1999/xlink" width="32.55" height="28.859" viewBox="0 0 32.55 28.859">
  <defs>
    <clipPath id="clip-path">
      <rect id="Rectangle_1674" data-name="Rectangle 1674" width="32.55" height="28.859" fill="#ff6766"/>
    </clipPath>
  </defs>
  <g id="Group_676" data-name="Group 676" transform="translate(0 1)">
    <g id="Group_671" data-name="Group 671" transform="translate(0 -1)" clip-path="url(#clip-path)">
      <path id="Path_1164" data-name="Path 1164" d="M32.55,26.764c-.038.106-.08.212-.114.319a2.5,2.5,0,0,1-2.218,1.768c-.042,0-.085.007-.127.007q-13.81,0-27.62,0A2.454,2.454,0,0,1,.1,27.037a2.592,2.592,0,0,1,.333-2.1q3.587-6.2,7.163-12.4,3.223-5.581,6.448-11.162A2.5,2.5,0,0,1,17.467.311a2.794,2.794,0,0,1,1.083,1.13q3.878,6.725,7.763,13.446c1.815,3.144,3.637,6.283,5.44,9.434.307.536.534,1.119.8,1.68Zm-2.5-.415L16.274,2.5,2.5,26.349Z" transform="translate(0 0)" fill="#ff6766"/>
      <path id="Path_1165" data-name="Path 1165" d="M117.482,76.3a1.755,1.755,0,0,1,1.575-1.916,1.689,1.689,0,0,1,1.837,1.435,7.977,7.977,0,0,1-.057,1.549c-.2,2.319-.408,4.637-.611,6.955a1.032,1.032,0,0,1-1.034,1.059,1.046,1.046,0,0,1-1.011-1.052q-.335-3.841-.677-7.682c-.012-.137-.018-.275-.023-.347" transform="translate(-102.93 -65.165)" fill="#ff6766"/>
      <path id="Path_1166" data-name="Path 1166" d="M121.3,170.2a1.429,1.429,0,1,1,1.415-1.446A1.426,1.426,0,0,1,121.3,170.2" transform="translate(-105.018 -146.612)" fill="#ff6766"/>
    </g>
  </g>
</svg>
