<svg id="Group_680" data-name="Group 680" xmlns="http://www.w3.org/2000/svg" xmlns:xlink="http://www.w3.org/1999/xlink" width="24.229" height="21.761" viewBox="0 0 24.229 21.761">
  <defs>
    <clipPath id="clip-path">
      <rect id="Rectangle_1600" data-name="Rectangle 1600" width="24.229" height="21.761" fill="#1e3550"/>
    </clipPath>
  </defs>
  <g id="Group_551" data-name="Group 551" transform="translate(0 0)" clip-path="url(#clip-path)">
    <path id="Path_1015" data-name="Path 1015" d="M45.861,18.48c0-.009,0-.019-.005-.028L40.944,1.813c0-.006,0-.011-.007-.017a2.4,2.4,0,0,0-4.63-.062L31.238,18.589a2.452,2.452,0,0,0,1.6,3.053,2.375,2.375,0,0,0,.7.107,2.417,2.417,0,0,0,2.306-1.733L40.5,4.567,44.108,16.8a2.452,2.452,0,0,0-.621-.083,2.524,2.524,0,1,0,2.489,2.524,2.556,2.556,0,0,0-.114-.756" transform="translate(-21.746 0)" fill="#1e3550"/>
    <path id="Path_1016" data-name="Path 1016" d="M8.186.108A2.406,2.406,0,0,0,5.175,1.734L.106,18.589a2.452,2.452,0,0,0,1.6,3.053,2.384,2.384,0,0,0,.7.107A2.417,2.417,0,0,0,4.72,20.016L9.789,3.161A2.452,2.452,0,0,0,8.186.108" transform="translate(0 0)" fill="#1e3550"/>
  </g>
</svg>
